<?xml version="1.0" encoding="UTF-8"?>
<svg xmlns="http://www.w3.org/2000/svg" xmlns:xlink="http://www.w3.org/1999/xlink" viewBox="0 0 349.9 477">
  <defs>
    <style>
      .cls-1, .cls-2 {
        fill: #fff;
      }

      .cls-2 {
        fill-rule: evenodd;
      }

      .cls-3 {
        fill: none;
      }

      .cls-4 {
        clip-path: url(#clippath-1);
      }

      .cls-5 {
        clip-path: url(#clippath);
      }
    </style>
    <clipPath id="clippath">
      <rect class="cls-3" y="56.45" width="349.9" height="350.1"/>
    </clipPath>
    <clipPath id="clippath-1">
      <rect class="cls-3" y="56.45" width="349.9" height="350.1"/>
    </clipPath>
  </defs>
  <g id="Layer_2" data-name="Layer 2">
    <g class="cls-5">
      <g class="cls-4">
        <path class="cls-2" d="M174.84,56.45C78.16,56.45-.21,134.82-.21,231.5s78.37,175.05,175.05,175.05,175.05-78.38,175.05-175.05S271.53,56.45,174.84,56.45M6.91,231.5c0-92.74,75.18-167.93,167.93-167.93,42.03,0,80.46,15.44,109.91,40.96-16.27,17.97-32.25,36.24-49.06,53.67-3.36-12.68-9.7-26.27-19.09-35.65-6.37-6.37-16.1-12.65-27.73-11.89-8.63.57-14.11,4.45-19.81,8.64-6.44-5.61-20.17-3.53-28.81-1.08-3.76,1.07-7.4,3.1-10.81,3.6-14.26,2.09-26.72-7.72-33.49-14.77-6.78,15.57-9.48,36.61-5.04,55.1,4.23,17.63,12.35,32.19,16.57,48.62-.62,1.24-1.44-1.22-2.16-2.16-5.23-6.89-12.8-14.64-24.49-15.49-14.37-1.03-24.82,7.68-29.89,15.13-3.18,4.66-6.07,12.42-5.4,21.25,1.3,17.12,14.64,24.53,25.21,33.5,10.92,9.26,19.96,21.53,25.21,37.46.88,2.66,2.8,7.51,2.52,9.72-.26,2.09-3.11,4.41-4.68,6.12-10.55,11.49-19.58,21.6-30.25,33.49-.71.79-2.2,2.95-3.33,4.39-32.79-30.65-53.3-74.28-53.3-122.7M156.82,384.38c-2.74-1.32-5.68-2.76-8.28-4.68-2.21-1.63-5.56-3.91-6.48-6.12-1.08-2.59-.84-7.07-.72-9.36,1.11-22.05,17.69-39.49,28.81-51.86.41.07.2.36,0,.36-8.43,18.23-20.4,43.73-13.32,71.67M154.3,327.48c-8.27,11.08-15.92,24.62-14.77,43.22-.12,1.22-1.6-.78-2.16-1.44-10.37-12.2-20.98-26.85-28.09-42.86-7.88-17.74-11.67-38.21-23.77-52.22.07-.41.36-.2.36,0,24.64,15.58,55.05,25.39,94,26.65.89-.05.61.44,0,.36-8.91,7.49-18.05,16.22-25.57,26.29M131.61,290.38c-21.22-6.31-40.67-15.12-54.02-27.01,7.45-.67,13.83,1.25,21.61,1.8,27.77,1.98,55.2-3.11,77.43-9.72,9.3-2.77,18.73-7.05,25.57-11.17-1.83,14.75-2.37,36.29,1.44,50.42-24.43,5.53-51.35,1.83-72.03-4.32M203.28,254.37c.42-.06.64.08.72.36,2.97,12.39,9.47,21.26,15.49,30.61-3.37,3.48-8.59,7-13.33,7.92-2.61-11.47-3.9-24.83-2.88-38.9M89.83,260.85c13.39-7.29,23.32-21.1,22.33-40.7-.41-8.11-3.62-15.65-6.48-22.69-7.82-19.22-18.88-42.57-13.33-70.59,5.85,1.07,12.78,3.59,19.81,3.6,7.85.02,14.32-3.19,21.61-5.76,10.17-3.59,21.47-6.56,32.41-2.88,1.76.53-.65,1.72-.72,1.8-7.76,9.23-16.01,17.19-16.57,34.93-.05,1.6-1.26,6.79,2.16,5.76,2.02.28.91-4.28,1.08-6.48.88-11.45,7.13-21.54,14.41-29.17,7.01-7.35,20.31-16.81,33.86-10.81,6.9,3.06,13.27,10.26,16.21,17.29,3.2,7.66,3.51,17.79,5.76,27.37,4.36,18.51,15.3,30.41,26.65,39.62-33.3,38.01-85.9,63.51-159.19,58.71M227.41,171.89c2.02-3.62,5.2-6.09,7.56-9.36,5.8,9.08,14.18,15.59,27.01,17.65-1.85,8.72-6.45,14.68-11.17,20.53-10.16-7.25-17.99-16.83-23.41-28.81"/>
      </g>
    </g>
  </g>
  <g id="Layer_4" data-name="Layer 4">
    <g>
      <path class="cls-1" d="M79.67,36.94c-3.28,0-5.83-1.18-7.64-3.54h-.33c.22,2.19.33,3.52.33,3.98v10.62h-5.51V10.55h4.45c.12.48.38,1.64.77,3.47h.28c1.72-2.62,4.3-3.94,7.73-3.94,3.23,0,5.75,1.17,7.56,3.52s2.71,5.63,2.71,9.87-.92,7.54-2.75,9.91-4.37,3.56-7.61,3.56ZM78.33,14.58c-2.19,0-3.79.64-4.79,1.92s-1.51,3.33-1.51,6.14v.82c0,3.16.5,5.44,1.5,6.86s2.63,2.12,4.9,2.12c1.91,0,3.38-.78,4.41-2.34s1.55-3.79,1.55-6.68-.51-5.11-1.54-6.6-2.53-2.24-4.51-2.24Z"/>
      <path class="cls-1" d="M124.22,23.46c0,4.23-1.09,7.54-3.26,9.91s-5.2,3.56-9.07,3.56c-2.42,0-4.56-.55-6.42-1.64s-3.29-2.66-4.29-4.71-1.5-4.42-1.5-7.12c0-4.2,1.08-7.48,3.23-9.84s5.2-3.54,9.12-3.54,6.72,1.21,8.91,3.62,3.28,5.67,3.28,9.76ZM105.35,23.46c0,5.98,2.21,8.98,6.63,8.98s6.56-2.99,6.56-8.98-2.2-8.88-6.61-8.88c-2.31,0-3.99.77-5.03,2.3s-1.56,3.73-1.56,6.59Z"/>
      <path class="cls-1" d="M148.49,36.94c-3.28,0-5.83-1.18-7.64-3.54h-.33c.22,2.19.33,3.52.33,3.98v10.62h-5.51V10.55h4.45c.12.48.38,1.64.77,3.47h.28c1.72-2.62,4.3-3.94,7.73-3.94,3.23,0,5.75,1.17,7.56,3.52s2.71,5.63,2.71,9.87-.92,7.54-2.75,9.91-4.37,3.56-7.61,3.56ZM147.16,14.58c-2.19,0-3.79.64-4.79,1.92s-1.51,3.33-1.51,6.14v.82c0,3.16.5,5.44,1.5,6.86s2.63,2.12,4.9,2.12c1.91,0,3.38-.78,4.41-2.34s1.55-3.79,1.55-6.68-.51-5.11-1.54-6.6-2.53-2.24-4.51-2.24Z"/>
      <path class="cls-1" d="M175.37,22.78l3.12-3.89,7.83-8.34h6.35l-10.43,11.13,11.09,14.79h-6.47l-8.32-11.37-3.02,2.48v8.88h-5.46V0h5.46v17.79l-.28,4.99h.14Z"/>
      <path class="cls-1" d="M225.29,23.46c0,4.23-1.09,7.54-3.26,9.91s-5.2,3.56-9.07,3.56c-2.42,0-4.56-.55-6.42-1.64s-3.29-2.66-4.29-4.71-1.5-4.42-1.5-7.12c0-4.2,1.08-7.48,3.23-9.84s5.2-3.54,9.12-3.54,6.72,1.21,8.91,3.62,3.28,5.67,3.28,9.76ZM206.42,23.46c0,5.98,2.21,8.98,6.63,8.98s6.56-2.99,6.56-8.98-2.2-8.88-6.61-8.88c-2.31,0-3.99.77-5.03,2.3s-1.56,3.73-1.56,6.59Z"/>
      <path class="cls-1" d="M259.41,23.46c0,4.23-1.09,7.54-3.26,9.91s-5.2,3.56-9.07,3.56c-2.42,0-4.56-.55-6.42-1.64s-3.29-2.66-4.29-4.71-1.5-4.42-1.5-7.12c0-4.2,1.08-7.48,3.23-9.84s5.2-3.54,9.12-3.54,6.72,1.21,8.91,3.62,3.28,5.67,3.28,9.76ZM240.54,23.46c0,5.98,2.21,8.98,6.63,8.98s6.56-2.99,6.56-8.98-2.2-8.88-6.61-8.88c-2.31,0-3.99.77-5.03,2.3s-1.56,3.73-1.56,6.59Z"/>
      <path class="cls-1" d="M283.68,10.08c1.11,0,2.02.08,2.74.23l-.54,5.13c-.78-.19-1.59-.28-2.44-.28-2.2,0-3.99.72-5.36,2.16s-2.05,3.3-2.05,5.6v13.55h-5.51V10.55h4.31l.73,4.57h.28c.86-1.55,1.98-2.77,3.36-3.68s2.87-1.36,4.46-1.36Z"/>
    </g>
    <g>
      <path class="cls-1" d="M50.78,462.59h-7v-36.83h-12.6v-6.01h32.2v6.01h-12.6v36.83Z"/>
      <path class="cls-1" d="M97.71,462.59h-6.91v-19.92c0-2.5-.5-4.37-1.51-5.6-1.01-1.23-2.6-1.85-4.79-1.85-2.89,0-5.01.86-6.37,2.59-1.36,1.73-2.04,4.62-2.04,8.69v16.08h-6.88v-45.59h6.88v11.57c0,1.86-.12,3.84-.35,5.95h.44c.94-1.56,2.24-2.77,3.91-3.63s3.62-1.29,5.84-1.29c7.85,0,11.78,3.96,11.78,11.87v21.12Z"/>
      <path class="cls-1" d="M106.88,421.6c0-1.23.34-2.18,1.01-2.84s1.64-1,2.89-1,2.15.33,2.83,1,1.01,1.61,1.01,2.84-.34,2.09-1.01,2.77-1.62,1.01-2.83,1.01-2.21-.34-2.89-1.01-1.01-1.6-1.01-2.77ZM114.18,462.59h-6.88v-32.4h6.88v32.4Z"/>
      <path class="cls-1" d="M140.45,429.6c1.39,0,2.53.1,3.43.29l-.67,6.42c-.98-.23-1.99-.35-3.05-.35-2.75,0-4.99.9-6.69,2.7-1.71,1.8-2.56,4.13-2.56,7v16.93h-6.88v-32.4h5.39l.91,5.71h.35c1.07-1.93,2.48-3.47,4.2-4.6s3.59-1.7,5.58-1.7Z"/>
      <path class="cls-1" d="M160.82,463.17c-4.04,0-7.2-1.46-9.46-4.39-2.27-2.93-3.4-7.04-3.4-12.33s1.15-9.45,3.44-12.41c2.29-2.96,5.47-4.44,9.54-4.44s7.5,1.57,9.73,4.72h.35c-.33-2.32-.5-4.16-.5-5.51v-11.81h6.91v45.59h-5.39l-1.2-4.25h-.32c-2.21,3.22-5.44,4.83-9.7,4.83ZM162.66,457.61c2.83,0,4.89-.79,6.18-2.39,1.29-1.59,1.95-4.17,1.99-7.75v-.97c0-4.08-.66-6.98-1.99-8.7-1.33-1.72-3.41-2.58-6.24-2.58-2.42,0-4.29.98-5.6,2.94-1.31,1.96-1.96,4.76-1.96,8.39s.63,6.33,1.9,8.22c1.27,1.89,3.17,2.83,5.71,2.83Z"/>
      <path class="cls-1" d="M213.84,462.59l-4.19-15.12c-.51-1.6-1.43-5.32-2.75-11.16h-.26c-1.13,5.27-2.03,9.01-2.7,11.22l-4.31,15.06h-7.62l-9.08-32.4h7.03l4.13,15.97c.94,3.95,1.6,7.32,1.99,10.14h.18c.2-1.43.49-3.06.89-4.91.4-1.85.75-3.23,1.04-4.15l4.92-17.05h7.56l4.78,17.05c.29.96.66,2.42,1.1,4.39s.7,3.51.78,4.6h.23c.29-2.4.98-5.76,2.05-10.08l4.19-15.97h6.91l-9.14,32.4h-7.73Z"/>
      <path class="cls-1" d="M235.87,421.6c0-1.23.34-2.18,1.01-2.84s1.64-1,2.89-1,2.15.33,2.83,1,1.01,1.61,1.01,2.84-.34,2.09-1.01,2.77-1.62,1.01-2.83,1.01-2.21-.34-2.89-1.01-1.01-1.6-1.01-2.77ZM243.17,462.59h-6.88v-32.4h6.88v32.4Z"/>
      <path class="cls-1" d="M281.52,462.59h-6.91v-19.92c0-2.5-.5-4.37-1.51-5.6s-2.6-1.85-4.79-1.85c-2.91,0-5.04.86-6.39,2.58s-2.02,4.6-2.02,8.64v16.14h-6.88v-32.4h5.39l.97,4.25h.35c.98-1.54,2.36-2.73,4.16-3.57s3.79-1.26,5.98-1.26c7.77,0,11.66,3.96,11.66,11.87v21.12Z"/>
      <path class="cls-1" d="M318.46,430.19v3.78l-5.54,1.03c.51.68.93,1.52,1.26,2.52s.5,2.05.5,3.16c0,3.34-1.15,5.97-3.46,7.88s-5.48,2.87-9.52,2.87c-1.04,0-1.97-.08-2.81-.23-1.48.92-2.23,1.99-2.23,3.22,0,.74.35,1.3,1.04,1.67s1.97.56,3.82.56h5.65c3.57,0,6.29.76,8.14,2.29s2.78,3.72,2.78,6.59c0,3.67-1.51,6.5-4.54,8.5s-7.4,2.99-13.12,2.99c-4.41,0-7.78-.78-10.11-2.34s-3.49-3.79-3.49-6.68c0-1.99.63-3.67,1.89-5.02s3.02-2.3,5.29-2.83c-.92-.39-1.67-1.02-2.27-1.89-.6-.87-.89-1.78-.89-2.74,0-1.21.34-2.24,1.03-3.08s1.7-1.67,3.05-2.49c-1.68-.72-3.04-1.9-4.09-3.53-1.04-1.63-1.57-3.54-1.57-5.73,0-3.52,1.11-6.24,3.33-8.17s5.38-2.9,9.48-2.9c.92,0,1.88.06,2.89.19,1.01.13,1.76.26,2.27.4h11.22ZM293,467.63c0,1.48.67,2.63,2.01,3.43s3.22,1.2,5.64,1.2c3.75,0,6.54-.54,8.38-1.61s2.75-2.5,2.75-4.28c0-1.41-.5-2.41-1.51-3-1.01-.6-2.88-.89-5.61-.89h-5.21c-1.97,0-3.54.46-4.7,1.39-1.16.93-1.74,2.18-1.74,3.76ZM295.96,440.67c0,2.03.52,3.59,1.57,4.69s2.54,1.64,4.5,1.64c3.98,0,5.98-2.13,5.98-6.39,0-2.11-.49-3.74-1.48-4.88s-2.49-1.71-4.5-1.71-3.5.57-4.53,1.7-1.54,2.78-1.54,4.95Z"/>
    </g>
  </g>
</svg>