<?xml version="1.0" encoding="UTF-8"?>
<svg id="Layer_3" data-name="Layer 3" xmlns="http://www.w3.org/2000/svg" viewBox="0 0 350 350">
  <defs>
    <style>
      .cls-1 {
        fill: #fff;
        fill-rule: evenodd;
      }
    </style>
  </defs>
  <path class="cls-1" d="M175,0C78.35,0,0,78.35,0,175s78.35,175,175,175,175-78.35,175-175S271.65,0,175,0ZM7.12,175C7.12,82.28,82.28,7.12,175,7.12c42.02,0,80.43,15.44,109.88,40.95-16.27,17.97-32.24,36.23-49.04,53.66-3.36-12.68-9.7-26.26-19.08-35.64-6.37-6.37-16.09-12.64-27.72-11.88-8.62.57-14.1,4.45-19.8,8.64-6.43-5.61-20.16-3.53-28.8-1.08-3.76,1.07-7.4,3.1-10.8,3.6-14.25,2.09-26.71-7.72-33.48-14.76-6.78,15.56-9.48,36.6-5.04,55.09,4.23,17.62,12.35,32.18,16.56,48.61-.62,1.24-1.44-1.22-2.16-2.16-5.23-6.88-12.79-14.64-24.48-15.48-14.36-1.03-24.81,7.68-29.88,15.12-3.18,4.66-6.07,12.42-5.4,21.24,1.3,17.12,14.63,24.52,25.2,33.48,10.92,9.26,19.95,21.52,25.2,37.45.88,2.66,2.8,7.5,2.52,9.72-.26,2.09-3.11,4.41-4.68,6.12-10.54,11.49-19.57,21.59-30.24,33.48-.71.79-2.19,2.95-3.33,4.39C27.62,267.02,7.12,223.41,7.12,175ZM156.98,327.83c-2.74-1.32-5.68-2.76-8.28-4.68-2.21-1.63-5.55-3.91-6.48-6.12-1.08-2.59-.84-7.07-.72-9.36,1.11-22.05,17.69-39.48,28.8-51.85.41.07.2.36,0,.36-8.43,18.23-20.4,43.72-13.32,71.65ZM154.46,270.95c-8.27,11.08-15.91,24.62-14.76,43.21-.12,1.22-1.6-.78-2.16-1.44-10.37-12.2-20.98-26.84-28.08-42.85-7.88-17.74-11.67-38.2-23.76-52.21.07-.41.36-.2.36,0,24.63,15.58,55.03,25.38,93.97,26.64.89-.05.61.44,0,.36-8.9,7.49-18.04,16.21-25.56,26.28ZM131.78,233.86c-21.21-6.31-40.65-15.12-54.01-27,7.44-.67,13.82,1.25,21.6,1.8,27.76,1.98,55.19-3.11,77.41-9.72,9.3-2.77,18.72-7.04,25.56-11.16-1.83,14.74-2.37,36.28,1.44,50.41-24.42,5.53-51.33,1.83-72.01-4.32ZM203.43,197.86c.42-.06.64.08.72.36,2.97,12.39,9.47,21.25,15.48,30.6-3.37,3.48-8.59,7-13.32,7.92-2.6-11.47-3.9-24.82-2.88-38.88ZM90.01,204.34c13.38-7.29,23.31-21.09,22.32-40.69-.41-8.11-3.62-15.65-6.48-22.68-7.82-19.22-18.88-42.55-13.32-70.57,5.85,1.07,12.78,3.59,19.8,3.6,7.84.02,14.32-3.19,21.6-5.76,10.17-3.59,21.47-6.56,32.4-2.88,1.76.53-.65,1.72-.72,1.8-7.76,9.23-16,17.18-16.56,34.92-.05,1.6-1.26,6.79,2.16,5.76,2.02.28.91-4.28,1.08-6.48.88-11.45,7.13-21.53,14.4-29.16,7-7.35,20.3-16.81,33.84-10.8,6.9,3.06,13.27,10.25,16.2,17.28,3.2,7.66,3.51,17.78,5.76,27.36,4.36,18.51,15.3,30.4,26.64,39.61-33.29,38-85.87,63.49-159.14,58.69ZM227.55,115.41c2.02-3.62,5.19-6.09,7.56-9.36,5.8,9.08,14.18,15.59,27,17.64-1.85,8.71-6.45,14.67-11.16,20.52-10.16-7.24-17.98-16.82-23.4-28.8Z"/>
</svg>